name rise36.2859peak64.2979fall75.1499.mot
datacolumns 19
datarows 35
range 12.36662100000000 12.42328500000000
endheader
time	ground_force1_vx	ground_force1_vy	ground_force1_vz	ground_force1_px	ground_force1_py	ground_force1_pz	ground_force2_vx	ground_force2_vy	ground_force2_vz	ground_force2_px	ground_force2_py	ground_force2_pz	ground_torque1_x	ground_torque1_y	ground_torque1_z	ground_torque2_x	ground_torque2_y	ground_torque2_z	
12.36662100000000	-12.47464700000000	46.12762500000000	-12.46587200000000	0.42034000000000	0.00000000000000	0.07788500000000	-43.42135800000000	793.83383700000002	-58.93101000000000	0.21238800000000	0.00000000000000	-0.10624900000000	0.00000000000000	-9.86570500000000	0.00000000000000	0.00000000000000	-32.38995900000000	0.00000000000000	
12.36828600000000	-13.53282400000000	52.97225400000000	-13.69758000000000	0.41888300000000	0.00000000000000	0.07940900000000	-44.07262400000000	791.11091499999998	-58.53075600000000	0.21129700000000	0.00000000000000	-0.10614300000000	0.00000000000000	-10.82976300000000	0.00000000000000	0.00000000000000	-32.23874200000000	0.00000000000000	
12.36996800000000	-14.38928000000000	59.81099100000000	-14.76916000000000	0.41770700000000	0.00000000000000	0.08079100000000	-44.73659000000000	788.28975100000002	-58.11166100000000	0.21019300000000	0.00000000000000	-0.10603500000000	0.00000000000000	-11.67549400000000	0.00000000000000	0.00000000000000	-32.08533100000000	0.00000000000000	
12.37161700000000	-15.02595100000000	66.57718400000000	-15.66152200000000	0.41677800000000	0.00000000000000	0.08205000000000	-45.41278900000000	785.36934199999996	-57.67365000000000	0.20907600000000	0.00000000000000	-0.10592300000000	0.00000000000000	-12.38985200000000	0.00000000000000	0.00000000000000	-31.92975000000000	0.00000000000000	
12.37328500000000	-15.43613100000000	73.22786600000001	-16.36575300000000	0.41606500000000	0.00000000000000	0.08320400000000	-46.10067300000000	782.34860600000002	-57.21665800000000	0.20794800000000	0.00000000000000	-0.10580900000000	0.00000000000000	-12.96726900000000	0.00000000000000	0.00000000000000	-31.77200900000000	0.00000000000000	
12.37496600000000	-15.62349400000000	79.74350400000000	-16.88236900000000	0.41554200000000	0.00000000000000	0.08426600000000	-46.79961200000000	779.22637799999995	-56.74063500000000	0.20680900000000	0.00000000000000	-0.10569300000000	0.00000000000000	-13.40904100000000	0.00000000000000	0.00000000000000	-31.61210400000000	0.00000000000000	
12.37662000000000	-15.60043200000000	86.12586500000000	-17.21991900000000	0.41519000000000	0.00000000000000	0.08524700000000	-47.50889300000000	776.00141099999996	-56.24553900000000	0.20566100000000	0.00000000000000	-0.10557300000000	0.00000000000000	-13.72227200000000	0.00000000000000	0.00000000000000	-31.45001600000000	0.00000000000000	
12.37829000000000	-15.38595800000000	92.39449000000000	-17.39318100000000	0.41499100000000	0.00000000000000	0.08615900000000	-48.22771900000000	772.67237999999998	-55.73134800000000	0.20450500000000	0.00000000000000	-0.10545100000000	0.00000000000000	-13.91850500000000	0.00000000000000	0.00000000000000	-31.28571600000000	0.00000000000000	
12.37995600000000	-15.00343700000000	98.58231400000000	-17.42114800000000	0.41492900000000	0.00000000000000	0.08700700000000	-48.95520700000000	769.23788600000000	-55.19805000000000	0.20334200000000	0.00000000000000	-0.10532500000000	0.00000000000000	-14.01224600000000	0.00000000000000	0.00000000000000	-31.11915600000000	0.00000000000000	
12.38161800000000	-14.47835200000000	104.73094800000000	-17.32503300000000	0.41499300000000	0.00000000000000	0.08779900000000	-49.69038900000000	765.69645200000002	-54.64565400000000	0.20217300000000	0.00000000000000	-0.10519700000000	0.00000000000000	-14.01948100000000	0.00000000000000	0.00000000000000	-30.95027800000000	0.00000000000000	
12.38328200000000	-13.83627600000000	110.88606100000000	-17.12642500000000	0.41517000000000	0.00000000000000	0.08854100000000	-50.43221300000000	762.04653599999995	-54.07418300000000	0.20099900000000	0.00000000000000	-0.10506600000000	0.00000000000000	-13.95634100000000	0.00000000000000	0.00000000000000	-30.77900500000000	0.00000000000000	
12.38495200000000	-13.10119100000000	117.09320900000000	-16.84574300000000	0.41545100000000	0.00000000000000	0.08923800000000	-51.17954300000000	758.28652799999998	-53.48368300000000	0.19982300000000	0.00000000000000	-0.10493100000000	0.00000000000000	-13.83796500000000	0.00000000000000	0.00000000000000	-30.60525100000000	0.00000000000000	
12.38661800000000	-12.29421500000000	123.39437599999999	-16.50103800000000	0.41582800000000	0.00000000000000	0.08989300000000	-51.93115700000000	754.41475800000001	-52.87421700000000	0.19864500000000	0.00000000000000	-0.10479400000000	0.00000000000000	-13.67763600000000	0.00000000000000	0.00000000000000	-30.42891100000000	0.00000000000000	
12.38828900000000	-11.43276300000000	129.82535100000001	-16.10718900000000	0.41629100000000	0.00000000000000	0.09051100000000	-52.68575300000000	750.42950599999995	-52.24587200000000	0.19746700000000	0.00000000000000	-0.10465300000000	0.00000000000000	-13.48620000000000	0.00000000000000	0.00000000000000	-30.24986800000000	0.00000000000000	
12.38996700000000	-10.53013900000000	136.41400800000000	-15.67547400000000	0.41683600000000	0.00000000000000	0.09109500000000	-53.44194400000000	746.32899899999995	-51.59875800000000	0.19629100000000	0.00000000000000	-0.10450900000000	0.00000000000000	-13.27176400000000	0.00000000000000	0.00000000000000	-30.06799000000000	0.00000000000000	
12.39162200000000	-9.59550200000000	143.17944499999999	-15.21349200000000	0.41745400000000	0.00000000000000	0.09164700000000	-54.19826700000000	742.11142900000004	-50.93301000000000	0.19511800000000	0.00000000000000	-0.10436100000000	0.00000000000000	-13.03964300000000	0.00000000000000	0.00000000000000	-29.88313200000000	0.00000000000000	
12.39328200000000	-8.63414900000000	150.13190900000001	-14.72537300000000	0.41814100000000	0.00000000000000	0.09217000000000	-54.95318100000000	737.77495299999998	-50.24878800000000	0.19395000000000	0.00000000000000	-0.10421000000000	0.00000000000000	-12.79252800000000	0.00000000000000	0.00000000000000	-29.69513400000000	0.00000000000000	
12.39496600000000	-7.64803400000000	157.27334200000001	-14.21220800000000	0.41889100000000	0.00000000000000	0.09266600000000	-55.70507000000000	733.31770300000005	-49.54627800000000	0.19278800000000	0.00000000000000	-0.10405600000000	0.00000000000000	-12.53080700000000	0.00000000000000	0.00000000000000	-29.50382400000000	0.00000000000000	
12.39662300000000	-6.63643900000000	164.59842200000000	-13.67262700000000	0.41970000000000	0.00000000000000	0.09313700000000	-56.45224700000000	728.73779700000000	-48.82569700000000	0.19163500000000	0.00000000000000	-0.10389800000000	0.00000000000000	-12.25300000000000	0.00000000000000	0.00000000000000	-29.30901700000000	0.00000000000000	
12.39828300000000	-5.59671600000000	172.09590600000001	-13.10345900000000	0.42056200000000	0.00000000000000	0.09358400000000	-57.19295700000000	724.03334900000004	-48.08728800000000	0.19049100000000	0.00000000000000	-0.10373600000000	0.00000000000000	-11.95624800000000	0.00000000000000	0.00000000000000	-29.11051400000000	0.00000000000000	
12.39995000000000	-4.52503900000000	179.75013700000000	-12.50040100000000	0.42147500000000	0.00000000000000	0.09401000000000	-57.92538000000000	719.20247700000004	-47.33132800000000	0.18936000000000	0.00000000000000	-0.10357100000000	0.00000000000000	-11.63682300000000	0.00000000000000	0.00000000000000	-28.90810600000000	0.00000000000000	
12.40161700000000	-3.41710500000000	187.54255800000001	-11.85865100000000	0.42243300000000	0.00000000000000	0.09441400000000	-58.64763800000000	714.24331600000005	-46.55812400000000	0.18824200000000	0.00000000000000	-0.10340200000000	0.00000000000000	-11.29059600000000	0.00000000000000	0.00000000000000	-28.70157200000000	0.00000000000000	
12.40328400000000	-2.26873800000000	195.45313500000000	-11.17347100000000	0.42343300000000	0.00000000000000	0.09480000000000	-59.35779700000000	709.15402900000004	-45.76801500000000	0.18713900000000	0.00000000000000	-0.10322800000000	0.00000000000000	-10.91346000000000	0.00000000000000	0.00000000000000	-28.49068300000000	0.00000000000000	
12.40495400000000	-1.07637100000000	203.46159499999999	-10.44063300000000	0.42447200000000	0.00000000000000	0.09516600000000	-60.05387300000000	703.93281999999999	-44.96137200000000	0.18605400000000	0.00000000000000	-0.10305100000000	0.00000000000000	-10.50167900000000	0.00000000000000	0.00000000000000	-28.27519600000000	0.00000000000000	
12.40661500000000	0.16259800000000	211.54842099999999	-9.65675900000000	0.42554700000000	0.00000000000000	0.09551600000000	-60.73383600000000	698.57795199999998	-44.13860300000000	0.18498800000000	0.00000000000000	-0.10287000000000	0.00000000000000	-10.05213800000000	0.00000000000000	0.00000000000000	-28.05486400000000	0.00000000000000	
12.40828600000000	1.44959600000000	219.69559400000000	-8.81953700000000	0.42665300000000	0.00000000000000	0.09584800000000	-61.39561900000000	693.08775300000002	-43.30014600000000	0.18394300000000	0.00000000000000	-0.10268500000000	0.00000000000000	-9.56251600000000	0.00000000000000	0.00000000000000	-27.82943000000000	0.00000000000000	
12.40996500000000	2.78477600000000	227.88705800000000	-7.92782300000000	0.42778900000000	0.00000000000000	0.09616500000000	-62.03711900000000	687.46063800000002	-42.44647600000000	0.18292000000000	0.00000000000000	-0.10249600000000	0.00000000000000	-9.03137400000000	0.00000000000000	0.00000000000000	-27.59862900000000	0.00000000000000	
12.41162300000000	4.16703500000000	236.10894999999999	-6.98164800000000	0.42895000000000	0.00000000000000	0.09646600000000	-62.65620700000000	681.69512499999996	-41.57810200000000	0.18192200000000	0.00000000000000	-0.10230200000000	0.00000000000000	-8.45816400000000	0.00000000000000	0.00000000000000	-27.36219400000000	0.00000000000000	
12.41328400000000	5.59411400000000	244.34961699999999	-5.98214600000000	0.43013400000000	0.00000000000000	0.09675300000000	-63.25073200000000	675.78984600000001	-40.69556600000000	0.18095000000000	0.00000000000000	-0.10210400000000	0.00000000000000	-7.84318000000000	0.00000000000000	0.00000000000000	-27.11985000000000	0.00000000000000	
12.41495700000000	7.06276100000000	252.59945500000001	-4.93141800000000	0.43133900000000	0.00000000000000	0.09702600000000	-63.81852900000000	669.74356999999998	-39.79944500000000	0.18000600000000	0.00000000000000	-0.10190200000000	0.00000000000000	-7.18747200000000	0.00000000000000	0.00000000000000	-26.87132000000000	0.00000000000000	
12.41661700000000	8.56893000000000	260.85064399999999	-3.83236500000000	0.43256100000000	0.00000000000000	0.09728500000000	-64.35742399999999	663.55521399999998	-38.89034900000000	0.17909200000000	0.00000000000000	-0.10169500000000	0.00000000000000	-6.49271300000000	0.00000000000000	0.00000000000000	-26.61632400000000	0.00000000000000	
12.41828300000000	10.10799700000000	269.09679100000000	-2.68849900000000	0.43379900000000	0.00000000000000	0.09753100000000	-64.86524100000000	657.22386400000005	-37.96892100000000	0.17820900000000	0.00000000000000	-0.10148400000000	0.00000000000000	-5.76107400000000	0.00000000000000	0.00000000000000	-26.35458200000000	0.00000000000000	
12.41996700000000	11.67497400000000	277.33255700000001	-1.50375200000000	0.43504800000000	0.00000000000000	0.09776500000000	-65.33981199999999	650.74878799999999	-37.03583600000000	0.17736000000000	0.00000000000000	-0.10126800000000	0.00000000000000	-4.99507500000000	0.00000000000000	0.00000000000000	-26.08581400000000	0.00000000000000	
12.42162300000000	13.26470400000000	285.55328100000003	-0.28230400000000	0.43630700000000	0.00000000000000	0.09798700000000	-65.77898200000000	644.12945100000002	-36.09180300000000	0.17654600000000	0.00000000000000	-0.10104700000000	0.00000000000000	-4.19745900000000	0.00000000000000	0.00000000000000	-25.80974100000000	0.00000000000000	
12.42328500000000	14.87203200000000	293.75464399999998	0.97157500000000	0.43757200000000	0.00000000000000	0.09819700000000	-66.18061500000000	637.36553000000004	-35.13756100000000	0.17576900000000	0.00000000000000	-0.10082100000000	0.00000000000000	-3.37107900000000	0.00000000000000	0.00000000000000	-25.52608800000000	0.00000000000000	
